<svg width="39" height="40" viewBox="0 0 39 40" fill="none" xmlns="http://www.w3.org/2000/svg">
<path d="M25.5596 6.47328C27.8899 4.07328 31.2991 4.02328 33.1857 5.96661C35.0772 7.91328 35.0268 11.4333 32.6933 13.8333L28.756 17.8883C28.5343 18.1243 28.4118 18.4403 28.4151 18.768C28.4183 19.0958 28.5469 19.4091 28.7732 19.6406C28.9995 19.872 29.3054 20.003 29.6249 20.0054C29.9445 20.0078 30.2522 19.8813 30.4817 19.6533L34.4207 15.5983C37.5261 12.3999 37.9161 7.29494 34.9131 4.20161C31.9069 1.10661 26.9392 1.50994 23.8306 4.70828L15.9559 12.8199C12.8505 16.0183 12.4605 21.1233 15.4635 24.2149C15.5756 24.3346 15.7099 24.4301 15.8584 24.4959C16.007 24.5618 16.1668 24.5966 16.3286 24.5985C16.4904 24.6003 16.6509 24.569 16.8009 24.5065C16.9508 24.4441 17.087 24.3516 17.2017 24.2345C17.3164 24.1174 17.4072 23.9781 17.4688 23.8246C17.5305 23.6712 17.5617 23.5067 17.5607 23.3407C17.5597 23.1748 17.5265 23.0107 17.463 22.858C17.3995 22.7054 17.307 22.5672 17.1909 22.4516C15.2994 20.5049 15.3514 16.9849 17.6832 14.5849L25.5596 6.47328Z" fill="white"/>
<path d="M23.5381 15.7833C23.3097 15.5484 22.9997 15.4161 22.6762 15.4157C22.3527 15.4152 22.0423 15.5465 21.8132 15.7808C21.5841 16.0151 21.4552 16.3331 21.4547 16.6649C21.4543 16.9967 21.5823 17.315 21.8108 17.55C23.7023 19.4966 23.6519 23.015 21.3184 25.4166L13.442 33.5266C11.1101 35.9266 7.70089 35.9766 5.81426 34.0333C3.92276 32.0866 3.97476 28.5666 6.30664 26.1666L10.2456 22.1116C10.3586 21.9953 10.4482 21.8573 10.5092 21.7055C10.5702 21.5536 10.6014 21.391 10.6011 21.2268C10.6008 21.0626 10.569 20.9 10.5074 20.7485C10.4459 20.5969 10.3558 20.4592 10.2424 20.3433C10.129 20.2274 9.9944 20.1356 9.84637 20.073C9.69834 20.0105 9.53975 19.9784 9.37965 19.9787C9.21955 19.9791 9.06108 20.0117 8.91328 20.0748C8.76549 20.1379 8.63126 20.2303 8.51826 20.3466L4.57926 24.4016C1.47389 27.6016 1.08389 32.705 4.08689 35.7983C7.09314 38.895 12.0608 38.49 15.1694 35.2916L23.0458 27.18C26.1511 23.9833 26.5411 18.875 23.5381 15.7833Z" fill="white"/>
</svg>
