<svg width="39" height="40" viewBox="0 0 39 40" fill="none" xmlns="http://www.w3.org/2000/svg">
<path d="M12.246 10.4401C11.9687 10.1751 11.6021 10.0309 11.2232 10.0377C10.8443 10.0446 10.4828 10.202 10.2148 10.4768C9.94686 10.7516 9.79338 11.1224 9.78669 11.511C9.78001 11.8996 9.92065 12.2757 10.179 12.5601L17.433 20.0001L10.179 27.4401C10.0353 27.5774 9.92004 27.743 9.84011 27.927C9.76017 28.111 9.71719 28.3096 9.71373 28.511C9.71026 28.7124 9.74639 28.9125 9.81994 29.0993C9.8935 29.286 10.003 29.4557 10.1419 29.5981C10.2807 29.7406 10.4462 29.8529 10.6283 29.9283C10.8104 30.0037 11.0054 30.0408 11.2018 30.0372C11.3982 30.0337 11.5918 29.9896 11.7712 29.9076C11.9506 29.8256 12.1121 29.7074 12.246 29.5601L19.5 22.1201L26.754 29.5601C26.8879 29.7074 27.0493 29.8256 27.2287 29.9076C27.4081 29.9896 27.6018 30.0337 27.7982 30.0372C27.9945 30.0408 28.1896 30.0037 28.3717 29.9283C28.5538 29.8529 28.7192 29.7406 28.8581 29.5981C28.997 29.4557 29.1065 29.286 29.18 29.0993C29.2536 28.9125 29.2897 28.7124 29.2862 28.511C29.2828 28.3096 29.2398 28.111 29.1599 27.927C29.0799 27.743 28.9647 27.5774 28.821 27.4401L21.567 20.0001L28.821 12.5601C29.0793 12.2757 29.22 11.8996 29.2133 11.511C29.2066 11.1224 29.0531 10.7516 28.7851 10.4768C28.5172 10.202 28.1557 10.0446 27.7768 10.0377C27.3979 10.0309 27.0312 10.1751 26.754 10.4401L19.5 17.8801L12.246 10.4401Z" fill="white"/>
</svg>
