<svg width="39" height="40" viewBox="0 0 39 40" fill="none" xmlns="http://www.w3.org/2000/svg">
<g clip-path="url(#clip0_3006_366)">
<path d="M19.5 0.625C8.72782 0.625 0 9.29688 0 20C0 30.7031 8.72782 39.375 19.5 39.375C30.2722 39.375 39 30.7031 39 20C39 9.29688 30.2722 0.625 19.5 0.625ZM25.7903 13.75C27.1821 13.75 28.3065 14.8672 28.3065 16.25C28.3065 17.6328 27.1821 18.75 25.7903 18.75C24.3986 18.75 23.2742 17.6328 23.2742 16.25C23.2742 14.8672 24.3986 13.75 25.7903 13.75ZM13.2097 13.75C14.6014 13.75 15.7258 14.8672 15.7258 16.25C15.7258 17.6328 14.6014 18.75 13.2097 18.75C11.8179 18.75 10.6935 17.6328 10.6935 16.25C10.6935 14.8672 11.8179 13.75 13.2097 13.75ZM28.5266 27.0469C26.2857 29.7188 22.999 31.25 19.5 31.25C16.001 31.25 12.7143 29.7188 10.4734 27.0469C9.40403 25.7734 11.3383 24.1797 12.4077 25.4453C14.169 27.5469 16.748 28.7422 19.5 28.7422C22.252 28.7422 24.831 27.5391 26.5923 25.4453C27.646 24.1797 29.5881 25.7734 28.5266 27.0469Z" fill="white"/>
</g>
<defs>
<clipPath id="clip0_3006_366">
<rect width="39" height="40" fill="white"/>
</clipPath>
</defs>
</svg>
