<svg width="39" height="40" viewBox="0 0 39 40" fill="none" xmlns="http://www.w3.org/2000/svg">
<path d="M19.5 0C30.2696 0 39 8.73045 39 19.5C39 30.2696 30.2696 39 19.5 39C8.73045 39 0 30.2696 0 19.5C0 8.73045 8.73045 0 19.5 0ZM29.1953 10.3008C29.0062 10.3158 28.822 10.3693 28.6543 10.458C28.4867 10.5467 28.3385 10.6686 28.2197 10.8164L16.5049 23.6309L10.7666 17.5166C10.5136 17.2469 10.1636 17.0889 9.79395 17.0771C9.42446 17.0655 9.06548 17.2011 8.7959 17.4541C8.52644 17.707 8.36831 18.0564 8.35645 18.4258C8.34469 18.7954 8.48035 19.1551 8.7334 19.4248L15.5029 26.626C15.6327 26.7658 15.7901 26.8775 15.9648 26.9541C16.1397 27.0307 16.3286 27.0707 16.5195 27.0713H16.5332C16.7252 27.0689 16.9149 27.0273 17.0898 26.9482C17.2648 26.8691 17.4212 26.7539 17.5498 26.6113L30.2803 12.6836C30.4158 12.5506 30.523 12.3906 30.5947 12.2148C30.6664 12.0392 30.702 11.8508 30.6982 11.6611C30.6944 11.4713 30.6519 11.2841 30.5732 11.1113C30.4945 10.9386 30.381 10.7837 30.2402 10.6562C30.0996 10.5289 29.9345 10.4313 29.7549 10.3701C29.5752 10.3089 29.3845 10.2858 29.1953 10.3008Z" fill="white"/>
</svg>
