<svg width="39" height="40" viewBox="0 0 39 40" fill="none" xmlns="http://www.w3.org/2000/svg">
<path fill-rule="evenodd" clip-rule="evenodd" d="M2.92505 20C2.92505 22.2325 3.35377 24.4431 4.18675 26.5056C5.01972 28.5682 6.24062 30.4422 7.77975 32.0208C9.31889 33.5994 11.1461 34.8516 13.1571 35.706C15.168 36.5603 17.3234 37 19.5 37C21.6767 37 23.8321 36.5603 25.843 35.706C27.854 34.8516 29.6812 33.5994 31.2203 32.0208C32.7595 30.4422 33.9804 28.5682 34.8134 26.5056C35.6463 24.4431 36.075 22.2325 36.075 20C36.075 15.4913 34.3288 11.1673 31.2203 7.97919C28.1119 4.79107 23.896 3 19.5 3C15.1041 3 10.8882 4.79107 7.77975 7.97919C4.67134 11.1673 2.92505 15.4913 2.92505 20ZM34.125 20C34.125 23.9782 32.5842 27.7936 29.8415 30.6066C27.0988 33.4196 23.3788 35 19.5 35C15.6213 35 11.9013 33.4196 9.15861 30.6066C6.41589 27.7936 4.87505 23.9782 4.87505 20C4.87505 16.0218 6.41589 12.2064 9.15861 9.3934C11.9013 6.58035 15.6213 5 19.5 5C23.3788 5 27.0988 6.58035 29.8415 9.3934C32.5842 12.2064 34.125 16.0218 34.125 20Z" fill="white"/>
<path fill-rule="evenodd" clip-rule="evenodd" d="M12.675 20C12.675 28.792 15.4869 36 19.5 36C23.5131 36 26.325 28.792 26.325 20C26.325 11.208 23.5131 4 19.5 4C15.4869 4 12.675 11.208 12.675 20ZM24.375 20C24.375 27.778 21.9473 34 19.5 34C17.0528 34 14.625 27.778 14.625 20C14.625 12.222 17.0528 6 19.5 6C21.9473 6 24.375 12.222 24.375 20Z" fill="white"/>
<path d="M7.28327 10.624L8.58978 9.14001C8.79778 9.33201 9.02073 9.51935 9.25863 9.70201C11.8287 11.678 15.8847 12.882 20.3054 12.882C24.0747 12.882 27.5925 12.008 30.1626 10.502C30.7547 10.1583 31.3142 9.75854 31.8338 9.30801L33.1013 10.828C32.5189 11.3387 31.8624 11.808 31.1318 12.236C28.2516 13.926 24.4004 14.882 20.3054 14.882C15.4889 14.882 11.0195 13.556 8.08862 11.302C7.81045 11.0877 7.54173 10.8628 7.28327 10.624ZM7.28327 29.4L8.58978 30.88C8.79778 30.6867 9.02073 30.5 9.25863 30.32C11.8287 28.344 15.8847 27.14 20.3054 27.14C24.0747 27.14 27.5925 28.012 30.1626 29.52C30.7892 29.8893 31.3463 30.2867 31.8338 30.712L33.1013 29.192C32.489 28.6608 31.8296 28.1894 31.1318 27.784C28.2516 26.096 24.4004 25.14 20.3054 25.14C15.4889 25.14 11.0195 26.466 8.08862 28.718C7.80262 28.938 7.53417 29.1667 7.28327 29.4ZM3.90002 21V19H35.1V21H3.90002Z" fill="white"/>
</svg>
