<svg width="39" height="40" viewBox="0 0 39 40" fill="none" xmlns="http://www.w3.org/2000/svg">
<g clip-path="url(#clip0_3006_250)">
<path d="M17.0625 15C16.8215 15 16.5858 15.0733 16.3854 15.2107C16.185 15.348 16.0288 15.5432 15.9365 15.7716C15.8443 16.0001 15.8201 16.2514 15.8672 16.4939C15.9142 16.7363 16.0303 16.9591 16.2007 17.1339C16.3712 17.3087 16.5883 17.4278 16.8247 17.476C17.0611 17.5242 17.3062 17.4995 17.5289 17.4048C17.7516 17.3102 17.9419 17.15 18.0759 16.9445C18.2098 16.7389 18.2813 16.4972 18.2813 16.25C18.2813 15.9185 18.1528 15.6005 17.9243 15.3661C17.6957 15.1317 17.3857 15 17.0625 15ZM35.5342 6.5375L20.9092 0.2875C20.4593 0.113044 19.9845 0.015906 19.5038 0C19.0229 0.0155703 18.5478 0.112445 18.0977 0.286719L3.47268 6.53672C2.80495 6.82036 2.23432 7.30087 1.83308 7.91741C1.43184 8.53394 1.21803 9.25874 1.21875 10C1.21875 25.5078 9.94043 36.2281 18.0908 39.7125C18.5364 39.9024 19.0141 40.0001 19.4966 40.0001C19.979 40.0001 20.4568 39.9024 20.9023 39.7125C27.4287 36.9227 37.7812 27.2891 37.7812 10C37.7817 9.25983 37.5685 8.53609 37.1687 7.91994C36.7688 7.30378 36.2001 6.82277 35.5342 6.5375ZM29.25 20H28.3268C26.1551 20 25.0674 22.693 26.603 24.268L27.2566 24.9375C27.4852 25.1719 27.6136 25.4899 27.6136 25.8215C27.6136 26.153 27.4852 26.471 27.2566 26.7055C27.028 26.9399 26.718 27.0716 26.3947 27.0716C26.0714 27.0716 25.7614 26.9399 25.5328 26.7055L24.88 26.0352C23.3444 24.4602 20.7188 25.5758 20.7188 27.8031V28.75C20.7188 29.0815 20.5903 29.3995 20.3618 29.6339C20.1332 29.8683 19.8232 30 19.5 30C19.1768 30 18.8668 29.8683 18.6382 29.6339C18.4097 29.3995 18.2813 29.0815 18.2813 28.75V27.8031C18.2813 25.5758 15.6556 24.4602 14.12 26.0352L13.4672 26.7055C13.354 26.8216 13.2196 26.9136 13.0718 26.9765C12.9239 27.0393 12.7654 27.0716 12.6053 27.0716C12.4452 27.0716 12.2867 27.0393 12.1389 26.9765C11.991 26.9136 11.8566 26.8216 11.7434 26.7055C11.6302 26.5894 11.5405 26.4516 11.4792 26.2999C11.4179 26.1482 11.3864 25.9857 11.3864 25.8215C11.3864 25.6573 11.4179 25.4947 11.4792 25.3431C11.5405 25.1914 11.6302 25.0536 11.7434 24.9375L12.397 24.268C13.9326 22.693 12.8449 20 10.6732 20H9.75C9.42677 20 9.11677 19.8683 8.88821 19.6339C8.65965 19.3995 8.53125 19.0815 8.53125 18.75C8.53125 18.4185 8.65965 18.1005 8.88821 17.8661C9.11677 17.6317 9.42677 17.5 9.75 17.5H10.6732C12.8449 17.5 13.9326 14.807 12.397 13.232L11.7434 12.5625C11.5148 12.3281 11.3864 12.0101 11.3864 11.6785C11.3864 11.347 11.5148 11.029 11.7434 10.7945C11.972 10.5601 12.282 10.4284 12.6053 10.4284C12.9286 10.4284 13.2386 10.5601 13.4672 10.7945L14.12 11.4648C15.6556 13.0398 18.2813 11.9242 18.2813 9.69688V8.75C18.2813 8.41848 18.4097 8.10054 18.6382 7.86612C18.8668 7.6317 19.1768 7.5 19.5 7.5C19.8232 7.5 20.1332 7.6317 20.3618 7.86612C20.5903 8.10054 20.7188 8.41848 20.7188 8.75V9.69688C20.7188 11.9242 23.3444 13.0398 24.88 11.4648L25.5328 10.7945C25.7614 10.5601 26.0714 10.4284 26.3947 10.4284C26.718 10.4284 27.028 10.5601 27.2566 10.7945C27.4852 11.029 27.6136 11.347 27.6136 11.6785C27.6136 12.0101 27.4852 12.3281 27.2566 12.5625L26.603 13.232C25.0674 14.807 26.1551 17.5 28.3268 17.5H29.25C29.5732 17.5 29.8832 17.6317 30.1118 17.8661C30.3403 18.1005 30.4687 18.4185 30.4687 18.75C30.4687 19.0815 30.3403 19.3995 30.1118 19.6339C29.8832 19.8683 29.5732 20 29.25 20ZM21.9375 20C21.6965 20 21.4608 20.0733 21.2604 20.2107C21.06 20.348 20.9038 20.5432 20.8115 20.7716C20.7193 21.0001 20.6951 21.2514 20.7422 21.4939C20.7892 21.7363 20.9053 21.9591 21.0757 22.1339C21.2462 22.3087 21.4633 22.4278 21.6997 22.476C21.9361 22.5242 22.1812 22.4995 22.4039 22.4048C22.6266 22.3102 22.8169 22.15 22.9509 21.9445C23.0848 21.7389 23.1563 21.4972 23.1563 21.25C23.1563 20.9185 23.0278 20.6005 22.7993 20.3661C22.5707 20.1317 22.2607 20 21.9375 20Z" fill="white"/>
</g>
<defs>
<clipPath id="clip0_3006_250">
<rect width="39" height="40" fill="white"/>
</clipPath>
</defs>
</svg>
