<svg width="375" height="1960" viewBox="0 0 375 1960" fill="none" xmlns="http://www.w3.org/2000/svg">
<g clip-path="url(#clip0_942_14049)">
<circle cx="52" cy="55" r="75" fill="#5315E3"/>
<circle cx="338" cy="741" r="75" fill="#DEED14"/>
<circle cx="28" cy="659" r="75" fill="#19DB6A"/>
<rect width="25" height="1953.98" fill="url(#paint0_linear_942_14049)" fill-opacity="0.04"/>
<rect x="25" width="25" height="1953.98" fill="url(#paint1_linear_942_14049)" fill-opacity="0.04"/>
<rect x="50" width="25" height="1953.98" fill="url(#paint2_linear_942_14049)" fill-opacity="0.04"/>
<rect x="75" width="25" height="1953.98" fill="url(#paint3_linear_942_14049)" fill-opacity="0.04"/>
<rect x="100" width="25" height="1953.98" fill="url(#paint4_linear_942_14049)" fill-opacity="0.04"/>
<rect x="125" width="25" height="1953.98" fill="url(#paint5_linear_942_14049)" fill-opacity="0.04"/>
<rect x="150" width="25" height="1953.98" fill="url(#paint6_linear_942_14049)" fill-opacity="0.04"/>
<rect x="175" width="25" height="1953.98" fill="url(#paint7_linear_942_14049)" fill-opacity="0.04"/>
<rect x="200" width="25" height="1953.98" fill="url(#paint8_linear_942_14049)" fill-opacity="0.04"/>
<rect x="225" width="25" height="1953.98" fill="url(#paint9_linear_942_14049)" fill-opacity="0.04"/>
<rect x="250" width="25" height="1953.98" fill="url(#paint10_linear_942_14049)" fill-opacity="0.04"/>
<rect x="275" width="25" height="1953.98" fill="url(#paint11_linear_942_14049)" fill-opacity="0.04"/>
<rect x="325" y="5.66699" width="25" height="1953.98" fill="url(#paint12_linear_942_14049)" fill-opacity="0.04"/>
<rect x="300" width="25" height="1953.98" fill="url(#paint13_linear_942_14049)" fill-opacity="0.04"/>
<rect x="350" y="5.66699" width="25" height="1953.98" fill="url(#paint14_linear_942_14049)" fill-opacity="0.04"/>
</g>
<defs>
<linearGradient id="paint0_linear_942_14049" x1="25" y1="976.992" x2="0" y2="976.992" gradientUnits="userSpaceOnUse">
<stop stop-color="white"/>
<stop offset="1"/>
</linearGradient>
<linearGradient id="paint1_linear_942_14049" x1="50" y1="976.992" x2="25" y2="976.992" gradientUnits="userSpaceOnUse">
<stop stop-color="white"/>
<stop offset="1"/>
</linearGradient>
<linearGradient id="paint2_linear_942_14049" x1="75" y1="976.992" x2="50" y2="976.992" gradientUnits="userSpaceOnUse">
<stop stop-color="white"/>
<stop offset="1"/>
</linearGradient>
<linearGradient id="paint3_linear_942_14049" x1="100" y1="976.992" x2="75" y2="976.992" gradientUnits="userSpaceOnUse">
<stop stop-color="white"/>
<stop offset="1"/>
</linearGradient>
<linearGradient id="paint4_linear_942_14049" x1="125" y1="976.992" x2="100" y2="976.992" gradientUnits="userSpaceOnUse">
<stop stop-color="white"/>
<stop offset="1"/>
</linearGradient>
<linearGradient id="paint5_linear_942_14049" x1="150" y1="976.992" x2="125" y2="976.992" gradientUnits="userSpaceOnUse">
<stop stop-color="white"/>
<stop offset="1"/>
</linearGradient>
<linearGradient id="paint6_linear_942_14049" x1="175" y1="976.992" x2="150" y2="976.992" gradientUnits="userSpaceOnUse">
<stop stop-color="white"/>
<stop offset="1"/>
</linearGradient>
<linearGradient id="paint7_linear_942_14049" x1="200" y1="976.992" x2="175" y2="976.992" gradientUnits="userSpaceOnUse">
<stop stop-color="white"/>
<stop offset="1"/>
</linearGradient>
<linearGradient id="paint8_linear_942_14049" x1="225" y1="976.992" x2="200" y2="976.992" gradientUnits="userSpaceOnUse">
<stop stop-color="white"/>
<stop offset="1"/>
</linearGradient>
<linearGradient id="paint9_linear_942_14049" x1="250" y1="976.992" x2="225" y2="976.992" gradientUnits="userSpaceOnUse">
<stop stop-color="white"/>
<stop offset="1"/>
</linearGradient>
<linearGradient id="paint10_linear_942_14049" x1="275" y1="976.992" x2="250" y2="976.992" gradientUnits="userSpaceOnUse">
<stop stop-color="white"/>
<stop offset="1"/>
</linearGradient>
<linearGradient id="paint11_linear_942_14049" x1="300" y1="976.992" x2="275" y2="976.992" gradientUnits="userSpaceOnUse">
<stop stop-color="white"/>
<stop offset="1"/>
</linearGradient>
<linearGradient id="paint12_linear_942_14049" x1="350" y1="982.659" x2="325" y2="982.659" gradientUnits="userSpaceOnUse">
<stop stop-color="white"/>
<stop offset="1"/>
</linearGradient>
<linearGradient id="paint13_linear_942_14049" x1="325" y1="976.992" x2="300" y2="976.992" gradientUnits="userSpaceOnUse">
<stop stop-color="white"/>
<stop offset="1"/>
</linearGradient>
<linearGradient id="paint14_linear_942_14049" x1="375" y1="982.659" x2="350" y2="982.659" gradientUnits="userSpaceOnUse">
<stop stop-color="white"/>
<stop offset="1"/>
</linearGradient>
<clipPath id="clip0_942_14049">
<rect width="375" height="1960" fill="white"/>
</clipPath>
</defs>
</svg>
