<svg width="1407" height="817" viewBox="0 0 1407 817" fill="none" xmlns="http://www.w3.org/2000/svg">
<g clip-path="url(#clip0_1141_12894)">
<path d="M1367.3 770.3V620.6H1406.9V770.3H1367.3Z" fill="white"/>
<path d="M1303.1 671.5V684.1H1302.7C1296 673.6 1285.4 668.3 1271 668.3C1257.6 668.3 1246.4 672.8 1237.5 681.8C1228.6 690.7 1224.1 703.8 1224.1 720.9C1224.1 738 1228.6 751 1237.5 760C1246.4 769 1257.6 773.5 1271 773.5C1285.4 773.5 1296 768.3 1302.7 757.7H1303.1V770.3H1342.7V671.5H1303.1ZM1296.1 734.3C1292.7 737.6 1288.4 739.2 1283.1 739.2C1277.8 739.2 1273.5 737.6 1270.1 734.3C1266.7 731 1265 726.6 1265 721C1265 715.4 1266.7 711 1270.1 707.7C1273.5 704.4 1277.8 702.8 1283.1 702.8C1288.4 702.8 1292.7 704.4 1296.1 707.7C1299.5 710.9 1301.2 715.4 1301.2 721C1301.2 726.6 1299.5 731 1296.1 734.3Z" fill="white"/>
<path d="M1191.5 720.1C1191.5 725.4 1192.2 728.9 1193.6 730.8C1195 732.7 1197.8 733.6 1201.9 733.6H1205.3V770.4H1189.3C1164.3 770.4 1151.9 757.5 1151.9 731.7V704H1132V671.5H1151.9V631.9H1191.5V671.5H1212.5V704H1191.5V720.1Z" fill="white"/>
<path d="M1073.9 620.6H1114.3V657.6H1073.9V620.6Z" fill="white"/>
<path d="M1010.3 671.6V684.2H1009.9C1003.2 673.7 992.6 668.4 978.2 668.4C964.8 668.4 953.6 672.9 944.7 681.9C935.8 690.9 931.3 703.7 931.3 720.4C931.3 737.1 935.8 749.4 944.7 757.8C953.6 766.2 965 770.4 978.8 770.4C991.8 770.4 1002.1 765.9 1009.8 757.1H1010.2V761C1010.2 768.7 1008.1 774 1004 777C999.8 780 993.8 781.5 985.8 781.5C977 781.5 966.2 779.9 953.5 776.6L946.9 811.3C963.6 814.7 978.5 816.4 991.6 816.4C1011.2 816.4 1025.8 811.9 1035.4 803.1C1044.9 794.2 1049.7 782.2 1049.9 767.2V671.6H1010.3ZM1003.1 734.3C999.7 737.6 995.4 739.2 990.1 739.2C984.8 739.2 980.5 737.6 977.1 734.3C973.7 731 972 726.6 972 721C972 715.4 973.7 711 977.1 707.7C980.5 704.4 984.8 702.8 990.1 702.8C995.4 702.8 999.7 704.4 1003.1 707.7C1006.5 710.9 1008.2 715.4 1008.2 721C1008.2 726.6 1006.5 731 1003.1 734.3Z" fill="white"/>
<path d="M870.9 620.6H911.3V657.6H870.9V620.6Z" fill="white"/>
<path d="M589 719.2C589 707.7 584.4 701.9 575.1 701.9C564.5 701.9 559.3 708.7 559.3 722.4V770.3H519.7V671.5H558V686.3H558.4C567.1 674.3 578.4 668.3 592.4 668.3C603.5 668.3 612.3 671.7 618.8 678.5C625.3 685.3 628.5 695.2 628.5 708.3V770.3H588.9V719.2H589Z" fill="white"/>
<path d="M455.1 620.6H495.5V657.6H455.1V620.6Z" fill="white"/>
<path d="M367.6 770.3L347.1 721.3L326.3 770.3H293.6L255.5 671.5H293.6L310.9 719.2L329.3 671.5H364.8L383.2 719.2L400.3 671.5H438.4L400.5 770.3H367.6Z" fill="white"/>
<path d="M252.3 723.4C252.3 705.3 247.8 691.6 238.7 682.4C229.7 673.2 217.2 668.6 201.4 668.6C185.6 668.6 172.3 673.1 162.5 682.2C152.6 691.2 147.7 704.2 147.7 721.2C147.7 738.2 152.9 750.9 163.4 760C173.9 769.1 188.6 773.6 207.6 773.6C220.4 773.6 232.7 771.2 244.4 766.5L233.9 737.6C224.8 741.3 216.5 743.2 208.9 743.2C195.4 743.2 187.2 738.8 184.3 730.2H252.3V723.4ZM183.5 709.8C183.8 704.6 185.4 700.7 188.5 698C191.6 695.3 195.2 693.9 199.5 693.9C203.8 693.9 207.6 695.3 210.5 698C213.4 700.7 214.9 704.7 214.9 709.8H183.5Z" fill="white"/>
<path d="M110.9 750.3C96.4 763.6 76.5 770.3 51.2 770.3H0.199951V709.8H40.7999V734H51.5C63.2999 734 72.7 730.7 79.6 724.2C86.5 717.6 90 708.1 90 695.5C90 683.6 86.9 674.3 80.6 667.8V624.2C92.6 627.5 102.7 632.9 111.1 640.6C125.6 653.9 132.8 672.2 132.8 695.5C132.8 718.8 125.5 737 110.9 750.3Z" fill="white"/>
<path d="M495.1 770.3H455.5V671.5H495.1V770.3Z" fill="white"/>
<path d="M910.9 770.3H871.3V671.5H910.9V770.3Z" fill="white"/>
<path d="M1113.8 770.3H1074.3V671.5H1113.8V770.3Z" fill="white"/>
<path d="M62.4 658.1C59 657.4 55.4 657 51.5 657H40.7999V691.79H0.199951V620.6H51.2999C55.0999 620.6 58.8 620.8 62.4 621.1V658.1Z" fill="#B402CE"/>
<path d="M828.3 749.7C813.8 763 793.9 769.6 768.7 769.6H717.6V709.3H758.2V733.4H768.9C780.7 733.4 790.1 730.1 797 723.6C803.9 717.1 807.4 707.6 807.4 695.1C807.4 682.6 804.3 674.1 798 667.6V624.2C809.9 627.4 820.1 632.9 828.4 640.5C842.9 653.8 850.1 672 850.1 695.1C850.1 718.2 842.8 736.4 828.3 749.7ZM779.8 657.9C776.4 657.2 772.8 656.8 768.9 656.8H758.2V691.29H717.6V620.6H768.7C772.5 620.6 776.2 620.8 779.8 621.1V657.9Z" fill="white"/>
<path d="M829.7 447C793.5 480.1 744 496.6 681.2 496.6H554V346.4H655.1V406.4H681.7C711.1 406.4 734.5 398.3 751.7 382C768.9 365.7 777.5 342 777.5 310.9C777.5 279.8 769.7 258.4 754.1 242.3V134.1C783.9 142.2 809.1 155.7 829.9 174.8C865.9 207.9 883.9 253.2 883.9 310.9C883.9 368.6 865.8 413.9 829.7 447Z" fill="white"/>
<path d="M708.8 218.1C700.4 216.3 691.4 215.4 681.7 215.4H655.1V301.1H554V125.2H681.2C690.7 125.2 699.9 125.6 708.8 126.3V218.1Z" fill="#B402CE"/>
<path d="M553.7 0H655.1V91H553.7V0Z" fill="#B402CE"/>
<path d="M0 572H41.6V605.8H0V572Z" fill="#B402CE"/>
</g>
<defs>
<clipPath id="clip0_1141_12894">
<rect width="1406.9" height="816.4" fill="white"/>
</clipPath>
</defs>
</svg>
