<svg width="106" height="106" viewBox="0 0 106 106" fill="none" xmlns="http://www.w3.org/2000/svg">
<path fill-rule="evenodd" clip-rule="evenodd" d="M7.95001 53C7.95001 58.9161 9.11526 64.7742 11.3792 70.2399C13.6432 75.7056 16.9616 80.6719 21.1449 84.8552C25.3281 89.0385 30.2944 92.3568 35.7601 94.6208C41.2258 96.8848 47.084 98.05 53 98.05C58.9161 98.05 64.7742 96.8848 70.2399 94.6208C75.7056 92.3568 80.6719 89.0385 84.8552 84.8552C89.0385 80.6719 92.3568 75.7056 94.6208 70.2399C96.8848 64.7742 98.05 58.9161 98.05 53C98.05 41.052 93.3037 29.5934 84.8552 21.1449C76.4067 12.6963 64.948 7.95001 53 7.95001C41.052 7.95001 29.5934 12.6963 21.1449 21.1449C12.6963 29.5934 7.95001 41.052 7.95001 53ZM92.75 53C92.75 63.5424 88.5621 73.6529 81.1075 81.1075C73.6529 88.5621 63.5424 92.75 53 92.75C42.4577 92.75 32.3471 88.5621 24.8925 81.1075C17.4379 73.6529 13.25 63.5424 13.25 53C13.25 42.4577 17.4379 32.3471 24.8925 24.8925C32.3471 17.4379 42.4577 13.25 53 13.25C63.5424 13.25 73.6529 17.4379 81.1075 24.8925C88.5621 32.3471 92.75 42.4577 92.75 53Z" fill="white"/>
<path fill-rule="evenodd" clip-rule="evenodd" d="M34.45 53C34.45 76.2988 42.0926 95.4 53 95.4C63.9074 95.4 71.55 76.2988 71.55 53C71.55 29.7012 63.9074 10.6 53 10.6C42.0926 10.6 34.45 29.7012 34.45 53ZM66.25 53C66.25 73.6117 59.6515 90.1 53 90.1C46.3485 90.1 39.75 73.6117 39.75 53C39.75 32.3883 46.3485 15.9 53 15.9C59.6515 15.9 66.25 32.3883 66.25 53Z" fill="white"/>
<path d="M19.7955 28.1536L23.3465 24.221C23.9119 24.7298 24.5178 25.2262 25.1644 25.7103C32.1498 30.9467 43.1738 34.1373 55.1889 34.1373C65.4338 34.1373 74.995 31.8212 81.9804 27.8303C83.5897 26.9194 85.1104 25.8601 86.5225 24.6662L89.9675 28.6942C88.3846 30.0475 86.6003 31.2912 84.6145 32.4254C76.7864 36.9039 66.3189 39.4373 55.1889 39.4373C42.0979 39.4373 29.9503 35.9234 21.9844 29.9503C21.2284 29.3825 20.498 28.7865 19.7955 28.1536ZM19.7955 77.91L23.3465 81.832C23.9119 81.3197 24.5178 80.825 25.1644 80.348C32.1498 75.1116 43.1738 71.921 55.1889 71.921C65.4338 71.921 74.995 74.2318 81.9804 78.228C83.6835 79.2067 85.1975 80.2597 86.5225 81.3868L89.9675 77.3588C88.3034 75.951 86.5112 74.7018 84.6145 73.6276C76.7864 69.1544 66.3189 66.621 55.1889 66.621C42.0979 66.621 29.9503 70.1349 21.9844 76.1027C21.2071 76.6857 20.4775 77.2917 19.7955 77.91ZM10.6 55.65V50.35H95.4V55.65H10.6Z" fill="white"/>
</svg>
