<svg width="1407" height="245" viewBox="0 0 1407 245" fill="none" xmlns="http://www.w3.org/2000/svg">
<path d="M1367.3 198.3V48.6H1406.9V198.3H1367.3Z" fill="white"/>
<path d="M1303.1 99.5V112.1H1302.7C1296 101.6 1285.4 96.3 1271 96.3C1257.6 96.3 1246.4 100.8 1237.5 109.8C1228.6 118.7 1224.1 131.8 1224.1 148.9C1224.1 166 1228.6 179 1237.5 188C1246.4 197 1257.6 201.5 1271 201.5C1285.4 201.5 1296 196.3 1302.7 185.7H1303.1V198.3H1342.7V99.5H1303.1ZM1296.1 162.3C1292.7 165.6 1288.4 167.2 1283.1 167.2C1277.8 167.2 1273.5 165.6 1270.1 162.3C1266.7 159 1265 154.6 1265 149C1265 143.4 1266.7 139 1270.1 135.7C1273.5 132.4 1277.8 130.8 1283.1 130.8C1288.4 130.8 1292.7 132.4 1296.1 135.7C1299.5 138.9 1301.2 143.4 1301.2 149C1301.2 154.6 1299.5 159 1296.1 162.3Z" fill="white"/>
<path d="M1191.5 148.1C1191.5 153.4 1192.2 156.9 1193.6 158.8C1195 160.7 1197.8 161.6 1201.9 161.6H1205.3V198.4H1189.3C1164.3 198.4 1151.9 185.5 1151.9 159.7V132H1132V99.5H1151.9V59.9H1191.5V99.5H1212.5V132H1191.5V148.1Z" fill="white"/>
<path d="M1073.9 48.6H1114.3V85.6H1073.9V48.6Z" fill="white"/>
<path d="M1010.3 99.6V112.2H1009.9C1003.2 101.7 992.6 96.4 978.2 96.4C964.8 96.4 953.6 100.9 944.7 109.9C935.8 118.9 931.3 131.7 931.3 148.4C931.3 165.1 935.8 177.4 944.7 185.8C953.6 194.2 965 198.4 978.8 198.4C991.8 198.4 1002.1 193.9 1009.8 185.1H1010.2V189C1010.2 196.7 1008.1 202 1004 205C999.8 208 993.8 209.5 985.8 209.5C977 209.5 966.2 207.9 953.5 204.6L946.9 239.3C963.6 242.7 978.5 244.4 991.6 244.4C1011.2 244.4 1025.8 239.9 1035.4 231.1C1044.9 222.2 1049.7 210.2 1049.9 195.2V99.6H1010.3ZM1003.1 162.3C999.7 165.6 995.4 167.2 990.1 167.2C984.8 167.2 980.5 165.6 977.1 162.3C973.7 159 972 154.6 972 149C972 143.4 973.7 139 977.1 135.7C980.5 132.4 984.8 130.8 990.1 130.8C995.4 130.8 999.7 132.4 1003.1 135.7C1006.5 138.9 1008.2 143.4 1008.2 149C1008.2 154.6 1006.5 159 1003.1 162.3Z" fill="white"/>
<path d="M870.9 48.6H911.3V85.6H870.9V48.6Z" fill="white"/>
<path d="M589 147.2C589 135.7 584.4 129.9 575.1 129.9C564.5 129.9 559.3 136.7 559.3 150.4V198.3H519.7V99.5H558V114.3H558.4C567.1 102.3 578.4 96.3 592.4 96.3C603.5 96.3 612.3 99.7 618.8 106.5C625.3 113.3 628.5 123.2 628.5 136.3V198.3H588.9V147.2H589Z" fill="white"/>
<path d="M455.1 48.6H495.5V85.6H455.1V48.6Z" fill="white"/>
<path d="M367.6 198.3L347.1 149.3L326.3 198.3H293.6L255.5 99.5H293.6L310.9 147.2L329.3 99.5H364.8L383.2 147.2L400.3 99.5H438.4L400.5 198.3H367.6Z" fill="white"/>
<path d="M252.3 151.4C252.3 133.3 247.8 119.6 238.7 110.4C229.7 101.2 217.2 96.6 201.4 96.6C185.6 96.6 172.3 101.1 162.5 110.2C152.6 119.2 147.7 132.2 147.7 149.2C147.7 166.2 152.9 178.9 163.4 188C173.9 197.1 188.6 201.6 207.6 201.6C220.4 201.6 232.7 199.2 244.4 194.5L233.9 165.6C224.8 169.3 216.5 171.2 208.9 171.2C195.4 171.2 187.2 166.8 184.3 158.2H252.3V151.4ZM183.5 137.8C183.8 132.6 185.4 128.7 188.5 126C191.6 123.3 195.2 121.9 199.5 121.9C203.8 121.9 207.6 123.3 210.5 126C213.4 128.7 214.9 132.7 214.9 137.8H183.5Z" fill="white"/>
<path d="M110.9 178.3C96.4 191.6 76.5 198.3 51.2 198.3H0.199951V137.8H40.7999V162H51.5C63.3 162 72.7 158.7 79.6 152.2C86.5 145.6 90 136.1 90 123.5C90 111.6 86.9 102.3 80.6 95.8V52.2C92.6 55.5 102.7 60.9 111.1 68.6C125.6 81.9 132.8 100.2 132.8 123.5C132.8 146.8 125.5 165 110.9 178.3Z" fill="white"/>
<path d="M495.1 198.3H455.5V99.5H495.1V198.3Z" fill="white"/>
<path d="M910.9 198.3H871.3V99.5H910.9V198.3Z" fill="white"/>
<path d="M1113.8 198.3H1074.3V99.5H1113.8V198.3Z" fill="white"/>
<path d="M62.4 86.1C59 85.4 55.4 85 51.5 85H40.7999V119.79H0.199951V48.6H51.2999C55.0999 48.6 58.8 48.8 62.4 49.1V86.1Z" fill="#B402CE"/>
<path d="M828.3 177.7C813.8 191 793.9 197.6 768.7 197.6H717.6V137.3H758.2V161.4H768.9C780.7 161.4 790.1 158.1 797 151.6C803.9 145.1 807.4 135.6 807.4 123.1C807.4 110.6 804.3 102.1 798 95.6V52.2C809.9 55.4 820.1 60.9 828.4 68.5C842.9 81.8 850.1 100 850.1 123.1C850.1 146.2 842.8 164.4 828.3 177.7ZM779.8 85.9C776.4 85.2 772.8 84.8 768.9 84.8H758.2V119.29H717.6V48.6H768.7C772.5 48.6 776.2 48.8 779.8 49.1V85.9Z" fill="white"/>
<path d="M0 0H41.6V33.8H0V0Z" fill="#B402CE"/>
</svg>
